HIERARCHY
ROOT Hips
{
	OFFSET -14.64140 90.27770 -84.91600
	CHANNELS 6 Xposition Yposition Zposition Zrotation Xrotation Yrotation
	JOINT Spine
	{
		OFFSET 0.00000 13.20850 -1.60436
		CHANNELS 3 Zrotation Xrotation Yrotation
		JOINT Spine1
		{
			OFFSET 0.00000 8.61716 0.00000
			CHANNELS 3 Zrotation Xrotation Yrotation
			JOINT Spine2
			{
				OFFSET 0.00000 8.61717 0.00000
				CHANNELS 3 Zrotation Xrotation Yrotation
				JOINT Spine3
				{
					OFFSET 0.00000 8.61717 0.00000
					CHANNELS 3 Zrotation Xrotation Yrotation
					JOINT Neck
					{
						OFFSET 0.00000 11.07920 1.10792
						CHANNELS 3 Zrotation Xrotation Yrotation
						JOINT Neck1
						{
							OFFSET 0.00000 7.08032 0.00000
							CHANNELS 3 Zrotation Xrotation Yrotation
							JOINT Head
							{
								OFFSET 0.00000 7.08031 0.00000
								CHANNELS 3 Zrotation Xrotation Yrotation
								End site
								{
									OFFSET 0.00000 0.00000 0.00000
								}
							}
						}
					}
					JOINT RightShoulder
					{
						OFFSET -0.01000 7.91373 5.19711
						CHANNELS 3 Zrotation Xrotation Yrotation
						JOINT RightArm
						{
							OFFSET -18.41580 0.00000 0.00000
							CHANNELS 3 Zrotation Xrotation Yrotation
							JOINT RightForeArm
							{
								OFFSET -29.11090 0.00000 0.00000
								CHANNELS 3 Zrotation Xrotation Yrotation
								JOINT RightHand
								{
									OFFSET -24.65040 0.00000 0.00000
									CHANNELS 3 Zrotation Xrotation Yrotation
									JOINT RightHandThumb1
									{
										OFFSET -5.35114 -0.85590 3.97906
										CHANNELS 3 Zrotation Xrotation Yrotation
										JOINT RightHandThumb2
										{
											OFFSET -4.52789 0.00000 0.00000
											CHANNELS 3 Zrotation Xrotation Yrotation
											JOINT RightHandThumb3
											{
												OFFSET -2.46976 0.00000 0.00000
												CHANNELS 3 Zrotation Xrotation Yrotation
												End site
												{
													OFFSET 0.00000 0.00000 0.00000
												}
											}
										}
									}
									JOINT RightHandIndex1
									{
										OFFSET -14.26970 0.00000 2.88139
										CHANNELS 3 Zrotation Xrotation Yrotation
										JOINT RightHandIndex2
										{
											OFFSET -5.48836 0.00000 0.00000
											CHANNELS 3 Zrotation Xrotation Yrotation
											JOINT RightHandIndex3
											{
												OFFSET -3.01859 0.00000 0.00000
												CHANNELS 3 Zrotation Xrotation Yrotation
												End site
												{
													OFFSET 0.00000 0.00000 0.00000
												}
											}
										}
									}
									JOINT RightHandMiddle1
									{
										OFFSET -14.26970 0.00000 -0.09147
										CHANNELS 3 Zrotation Xrotation Yrotation
										JOINT RightHandMiddle2
										{
											OFFSET -6.17441 0.00000 0.00000
											CHANNELS 3 Zrotation Xrotation Yrotation
											JOINT RightHandMiddle3
											{
												OFFSET -3.56743 0.00000 0.00000
												CHANNELS 3 Zrotation Xrotation Yrotation
												End site
												{
													OFFSET 0.00000 0.00000 0.00000
												}
											}
										}
									}
									JOINT RightHandRing1
									{
										OFFSET -12.69180 0.00000 -3.06433
										CHANNELS 3 Zrotation Xrotation Yrotation
										JOINT RightHandRing2
										{
											OFFSET -5.62556 0.00000 0.00000
											CHANNELS 3 Zrotation Xrotation Yrotation
											JOINT RightHandRing3
											{
												OFFSET -3.56744 0.00000 0.00000
												CHANNELS 3 Zrotation Xrotation Yrotation
												End site
												{
													OFFSET 0.00000 0.00000 0.00000
												}
											}
										}
									}
									JOINT RightHandPinky1
									{
										OFFSET -11.11390 0.00000 -6.03719
										CHANNELS 3 Zrotation Xrotation Yrotation
										JOINT RightHandPinky2
										{
											OFFSET -4.52789 0.00000 0.00000
											CHANNELS 3 Zrotation Xrotation Yrotation
											JOINT RightHandPinky3
											{
												OFFSET -2.46976 0.00000 0.00000
												CHANNELS 3 Zrotation Xrotation Yrotation
												End site
												{
													OFFSET 0.00000 0.00000 0.00000
												}
											}
										}
									}
								}
							}
						}
					}
					JOINT LeftShoulder
					{
						OFFSET 0.01000 7.91373 5.19711
						CHANNELS 3 Zrotation Xrotation Yrotation
						JOINT LeftArm
						{
							OFFSET 18.41580 0.00000 0.00000
							CHANNELS 3 Zrotation Xrotation Yrotation
							JOINT LeftForeArm
							{
								OFFSET 29.11090 0.00000 0.00000
								CHANNELS 3 Zrotation Xrotation Yrotation
								JOINT LeftHand
								{
									OFFSET 24.65040 0.00000 0.00000
									CHANNELS 3 Zrotation Xrotation Yrotation
									JOINT LeftHandThumb1
									{
										OFFSET 5.35114 -0.85590 3.97906
										CHANNELS 3 Zrotation Xrotation Yrotation
										JOINT LeftHandThumb2
										{
											OFFSET 4.52789 0.00000 0.00000
											CHANNELS 3 Zrotation Xrotation Yrotation
											JOINT LeftHandThumb3
											{
												OFFSET 2.46977 0.00000 0.00000
												CHANNELS 3 Zrotation Xrotation Yrotation
												End site
												{
													OFFSET 0.00000 0.00000 0.00000
												}
											}
										}
									}
									JOINT LeftHandIndex1
									{
										OFFSET 14.26970 0.00000 2.88139
										CHANNELS 3 Zrotation Xrotation Yrotation
										JOINT LeftHandIndex2
										{
											OFFSET 5.48836 0.00000 0.00000
											CHANNELS 3 Zrotation Xrotation Yrotation
											JOINT LeftHandIndex3
											{
												OFFSET 3.01859 0.00000 0.00000
												CHANNELS 3 Zrotation Xrotation Yrotation
												End site
												{
													OFFSET 0.00000 0.00000 0.00000
												}
											}
										}
									}
									JOINT LeftHandMiddle1
									{
										OFFSET 14.26970 0.00000 -0.09147
										CHANNELS 3 Zrotation Xrotation Yrotation
										JOINT LeftHandMiddle2
										{
											OFFSET 6.17440 0.00000 0.00000
											CHANNELS 3 Zrotation Xrotation Yrotation
											JOINT LeftHandMiddle3
											{
												OFFSET 3.56744 0.00000 0.00000
												CHANNELS 3 Zrotation Xrotation Yrotation
												End site
												{
													OFFSET 0.00000 0.00000 0.00000
												}
											}
										}
									}
									JOINT LeftHandRing1
									{
										OFFSET 12.69180 0.00000 -3.06433
										CHANNELS 3 Zrotation Xrotation Yrotation
										JOINT LeftHandRing2
										{
											OFFSET 5.62556 0.00000 0.00000
											CHANNELS 3 Zrotation Xrotation Yrotation
											JOINT LeftHandRing3
											{
												OFFSET 3.56744 0.00000 0.00000
												CHANNELS 3 Zrotation Xrotation Yrotation
												End site
												{
													OFFSET 0.00000 0.00000 0.00000
												}
											}
										}
									}
									JOINT LeftHandPinky1
									{
										OFFSET 11.11390 0.00000 -6.03719
										CHANNELS 3 Zrotation Xrotation Yrotation
										JOINT LeftHandPinky2
										{
											OFFSET 4.52789 0.00000 0.00000
											CHANNELS 3 Zrotation Xrotation Yrotation
											JOINT LeftHandPinky3
											{
												OFFSET 2.46976 0.00000 0.00000
												CHANNELS 3 Zrotation Xrotation Yrotation
												End site
												{
													OFFSET 0.00000 0.00000 0.00000
												}
											}
										}
									}
								}
							}
						}
					}
					JOINT pCube4
					{
						OFFSET 0.00000 10.91090 1.10792
						CHANNELS 3 Zrotation Xrotation Yrotation
						End site
						{
							OFFSET 0.00000 0.00000 0.00000
						}
					}
				}
			}
		}
	}
	JOINT RightUpLeg
	{
		OFFSET -9.98441 0.00000 0.00000
		CHANNELS 3 Zrotation Xrotation Yrotation
		JOINT RightLeg
		{
			OFFSET 0.00000 -42.11790 0.00000
			CHANNELS 3 Zrotation Xrotation Yrotation
			JOINT RightFoot
			{
				OFFSET 0.00000 -45.00020 -0.00001
				CHANNELS 3 Zrotation Xrotation Yrotation
				JOINT RightForeFoot
				{
					OFFSET 0.00000 -3.74820 0.00000
					CHANNELS 3 Zrotation Xrotation Yrotation
					JOINT RightToeBase
					{
						OFFSET 0.00000 0.06325 14.43120
						CHANNELS 3 Zrotation Xrotation Yrotation
						End site
						{
							OFFSET 0.00000 0.00000 0.00000
						}
					}
				}
			}
		}
	}
	JOINT LeftUpLeg
	{
		OFFSET 9.98441 0.00000 0.00000
		CHANNELS 3 Zrotation Xrotation Yrotation
		JOINT LeftLeg
		{
			OFFSET 0.00000 -42.11800 0.00000
			CHANNELS 3 Zrotation Xrotation Yrotation
			JOINT LeftFoot
			{
				OFFSET 0.00000 -45.00070 0.00000
				CHANNELS 3 Zrotation Xrotation Yrotation
				JOINT LeftForeFoot
				{
					OFFSET 0.00000 -3.74824 0.00000
					CHANNELS 3 Zrotation Xrotation Yrotation
					JOINT LeftToeBase
					{
						OFFSET 0.00000 0.06325 14.43110
						CHANNELS 3 Zrotation Xrotation Yrotation
						End site
						{
							OFFSET 0.00000 0.00000 0.00000
						}
					}
				}
			}
		}
	}
}
MOTION
Frames: 4
Frame Time: 0.050000
-0.002918204160284546 0.007313881279123352 -0.020873014888926497 -0.02695234392260273 0.01760656604096484 0.03685179850452563 2.341176870900087 1.1169398897543215 -1.8796899304672645 -0.7981861625819408 3.4006643482530294 0.4397992763413273 -0.9001189922967735 -1.5859201465173287 0.545571037792397 -0.6907631033734726 -0.3596547125428187 -0.41400576003135003 0.3473062236786104 13.064346404343729 -1.3496136207344942 0.5994532735115283 0.5329873888276067 -3.6099837805246335 1.0988228949328709 -14.754426919280904 -0.29964160423473285 -9.687121544631253 3.414963051419045 -15.407388139149738 75.7380441000573 4.314472155006774 22.03627915195984 41.856570388510434 9.967100596455806 94.28727048350332 18.098633884499947 -0.40671553108093245 -7.54355339423148 4.53994247690517 -0.1494502133982822 -1.5779492756298608 -0.034001764483667055 0.005835315103630457 -56.203551836822776 0.025046376401766428 -0.028469431381010747 -56.25658436927336 -38.738935561503915 0.018858904219660456 0.019084177058373963 0.036423972210773585 0.0005759872499523629 -0.02613036077452019 0.023609885767400737 0.005455699116021565 0.02759895929208042 -36.706313414051884 0.03872933363253373 -0.01276691706147764 0.046782355722121395 -0.01888099751015363 -0.026084592419373522 0.005152752156148379 -0.0007154910865694453 -0.03268354941434252 -19.78973241798869 -0.048614701253914136 -0.04258931022364644 0.027662165184111798 -0.03096239120621266 -0.019504931192823663 0.027040617859473638 -0.04240114772619913 -0.010215820972121318 24.09486392911889 0.03602008450193867 -0.004512623676996462 28.868732630899967 -0.02819806061607254 -0.019741830823924205 28.860354581967155 -0.004352825349341353 -0.012494470868807802 9.622352948596255 2.340444400173368 13.235554749886564 -73.75354831876015 22.923595166569424 -19.75720025838533 -55.595146093236046 13.106543993116793 -95.91329267694296 -18.599837571023674 -8.302623784940332 6.512910042354204 -0.5023229908283113 0.057153505320174214 -8.108404533614658 -0.006543035530299938 -0.0010116865228759187 44.52567621002054 -0.00302096202729861 -0.0447130191943135 44.53408632489444 12.436789087628053 0.045711509493788625 -0.0008600646383073648 0.022174220217673034 0.013600657841827863 -0.03780710507416014 -0.013099320233145613 0.045289355600214305 -0.015778927425384073 11.073445816389096 -0.005272303007190588 0.013997233233949542 0.030646679783982413 -0.03348679922823392 -0.01683881492452535 0.006630545633584279 -0.0054910221896348034 0.020973441175818754 4.795479617532941 0.003360120149393051 -0.045133475950462944 0.04709806011804168 0.029361204512907708 -0.02217345360812732 -0.027440031408213696 0.0018045043861369624 0.03321910885537796 -5.63476943573187 0.026995128697709952 -0.00981418134650162 -6.730088557936054 -0.03322614072472554 -0.02558106584809932 -6.763941856076166 -0.009442445153865324 0.04650696145553285 0.034291859860258934 -0.043352204189936655 -0.036717003946278796 8.076428826291057 3.5360520331206833 -19.18633620319729 -0.011856388457982758 10.380495722072961 0.011553360484899956 -5.665439598779049 -15.662147841179396 3.1982069380910993 -0.015056240385396704 -0.039866584871490904 -0.023414888334265256 -0.018317141700601575 4.703813330216341 -0.009395571713774944 12.471295334913307 -8.226281124013761 6.852329000487087 -0.034604552222334994 46.38024129657207 0.04676347544441751 -4.3415332586238025 -14.752067392845152 -3.8602133926832116 0.0388680798492372 -0.03139668122287633 0.0205134015908429 -0.04609417471890931 -10.763101813283756 -0.04848379772714605 
0.039141465988269314 0.007748719764150403 0.04532618599953306 0.04711620942430596 0.0009787425499908446 0.009499144584112669 2.029511966872685 1.01929600866845 -1.75072745317057 -0.7611824119261326 3.3890312239961835 0.3600982723101601 -0.9468850556186575 -1.7011990625093574 0.762874560509285 -0.7491648389514366 -0.3519218686048653 -0.4236808333717736 0.3795490492559288 13.275819590156853 -1.3281711350814722 0.5933266014133086 0.6224720740392327 -3.7823036277216255 1.0753593788462368 -14.706179083281581 -0.31513147989100954 -9.850379521448074 3.452138025493282 -15.330877506233508 75.31246594362837 1.1153203260769906 24.20263067084603 41.81668038310041 9.57826142574471 95.29361752410883 17.53476900587741 -0.4762655802785669 -7.305407156151064 4.521134588451576 -0.10082868073496708 -1.5827167388148258 0.033836154467349944 -0.030898624557871925 -56.21666037179923 0.01192495763886228 -0.0005398577447570114 -56.24437070806803 -38.75606019867144 0.001155951386569351 0.03148841654905285 -0.028114972712440955 -0.029805426185323756 0.019485014714041984 0.010217115078219678 0.010432732631350933 -0.03899086274706646 -36.71600597374429 0.018020379897379077 -0.04623537984167968 -0.03094645504187675 -0.0015921601041679835 0.010486382311118547 0.0418470000331046 -0.018772643561745638 0.023254683273014862 -19.747578542466748 -0.03727819730297626 -0.038049961788632326 -0.04315532367069848 0.038981526186961546 -0.0011293646041590072 0.01312708663573887 -0.008822603590640035 -0.030328479840873186 24.051600098646638 -0.028302344222598728 -0.04069677352175518 28.845397959089855 0.0097844199575751 -0.0035300473766255195 28.85663042753689 0.030891618234627365 -0.013211772075104076 9.29811841777452 2.282972543527587 13.191769859947774 -73.49268505542813 23.441078251810392 -18.99294380177367 -54.124025575935484 12.72229386776897 -95.90269336955275 -18.076293287329793 -7.790826223594029 5.922809852479189 -0.46600356590180897 0.09479145939882878 -8.090500632620836 0.00258647258138507 -0.04015807692752463 44.518787642364046 -0.030377480027051467 0.028602618407220698 44.535421698152426 12.49577384494962 -0.030955132147265495 -0.008998258682583903 -0.01972569300228192 0.02492153735028489 0.01847727327961717 -0.02439982514620979 0.03360473114882499 0.04940263567340614 11.12133371581411 0.020431829439529814 0.027464283458420165 -0.006021615090626792 -0.01658204526070934 0.021452955455477797 -0.012638422262542463 -0.01936883718788274 -0.031125738985599772 4.748194553229906 -0.019038565177728804 -0.011461061031172214 -0.01348962341044321 0.026785432785575297 0.04284741871479948 -0.026223459654474143 -0.013971503581210997 0.03962399507919491 -5.579990761472878 -0.04723479046954569 -0.04302871547936359 -6.710949218263555 -0.03229748723085879 0.03816315997433297 -6.68884120740487 -0.0038851264581759187 0.03832440879153303 0.006193643066918966 0.049744699533990515 0.012800700321676338 8.036395288268105 3.454733766430928 -19.25155957429997 0.011682796778527547 10.403946270549719 -0.020379960381126643 -5.61840189194582 -15.656818676333744 3.202559973346172 0.04253358873090028 0.02185527454978853 -0.04066993235199522 0.00855846194196474 4.654314262637157 0.03542648049385139 12.479195151102571 -8.248675608898887 6.8987593153185465 0.028980712479912706 46.34351360040497 -0.03298128551541929 -4.281135746237099 -14.749788232937538 -3.816031323333264 0.03365875264904152 0.015554871365822516 0.017930054362041706 -0.028072080724588565 -10.734224643244547 -0.04450283498468193 
-0.04871109604492347 0.027460647748453137 -0.04367347662133625 -0.04048581301405865 -0.007673052385544184 -0.03248305800293942 1.7733010948188976 0.9815977361669279 -1.7379671202632438 -0.8572294068771337 3.434849342037509 0.41024621941464096 -0.9903947640282241 -1.7239967664962434 0.9054330611477728 -0.8419714479495903 -0.36244482329943367 -0.388212371918207 0.4658920745386863 13.406486093437156 -1.4212877389616903 0.5804972584084718 0.6219538522036221 -3.9629865250395953 1.149949518717867 -14.584012461450547 -0.3590929988880451 -10.071660687836207 3.571220128209928 -15.17615340622574 75.06044088465805 -1.4433981029511613 26.48550155989024 40.859443790904464 9.32273859179027 96.42390105168464 16.92717145324811 -0.49142374695396973 -6.957279925833435 4.506340458447582 -0.13407343753580786 -1.6169445261815023 -0.03883456146946311 -0.014712152081270618 -56.280752214086306 -0.03015544063173986 -0.02246210080954973 -56.26296346049525 -38.81044161799306 0.03958008378189147 0.0061882842588642855 0.033439515586260966 0.025451088188868036 0.03520596481171217 -0.03103766365997249 0.047469793080818175 -0.0029269509759552847 -36.695097282661386 0.02742564836360032 0.01539516887258027 -0.007730587680499439 0.023786074858316644 0.035551964533921974 0.002262492328681115 0.005043793236211633 0.0006321674179537568 -19.77548212164449 0.016972018245988343 0.014140446706335387 0.015982219329317687 0.012291806329342809 0.02913369396097799 -0.020119828661845262 0.007344107500463224 -0.03525711024423828 24.0511288816433 0.02566094794119208 0.03264441216235146 28.878730823862085 -0.02471632007510891 0.03787787420480769 28.864830308369903 0.010648912280820681 -0.013302501063935641 9.11048605822528 2.2316631616339953 13.156091372609557 -73.22398128658 24.087358307057258 -18.31484128581665 -51.08975534477548 12.294283310109929 -95.92521923640874 -17.564348694771127 -7.4007307311981965 5.41614086248316 -0.4491027887712016 0.08880427122701362 -8.079123017547207 -0.008311124987329603 0.02265112114329767 44.532577577535505 -0.016703986203728587 0.03852257312400381 44.569241578470695 12.49074277400895 0.008401973754514744 0.035587368897037376 0.0024144097753426405 0.0022725253617169945 -0.02878736701724071 -0.005554283342779454 0.03267657455860313 0.03946039353572043 11.136075799200395 -0.01622946749690193 0.048485248853511534 -0.009025609342741325 0.03275810225854748 -0.0010686875740299093 -0.01045580155022622 0.03677200811520501 0.028093999498831863 4.77357521121358 -0.006149956547461298 0.024724558959881918 -0.02009275254545394 0.029501976568246754 0.012536060039207764 0.006838040145071393 -0.033610852232924086 -0.012433587854685626 -5.599677632659229 -0.022726663966756516 0.02067415884461309 -6.7327998824532 0.0424333041310936 0.03572844345736172 -6.683929462617426 -0.013711423865271664 -0.010753390913145556 0.031089538458300377 0.01569275058577569 -0.01138795489643215 8.071334700258596 3.4907876645585842 -19.19166344115144 0.0447087046275726 10.406153312771671 0.0008419799251303366 -5.5718716887376925 -15.64585512663834 3.1577553585189704 0.02097631585326161 -0.01130032920791158 0.02296510495733205 -0.02455143514012777 4.728461847200361 0.014562333817979277 12.469020145489203 -8.265325839373235 6.874312621509426 0.005865912765532725 46.36568157377124 -0.009457193262435023 -4.301951814929814 -14.771974990976826 -3.85775725385012 -0.029964332084809864 -0.009275877740581098 -0.007848898226737861 -0.012401837118726668 -10.7580542150703 0.0454244767466139 
-0.019737538023709103 -0.012159109836107632 -0.022975262148860195 -0.025456385536165665 0.02184899532612306 -0.01891789108272089 1.6832474295339719 0.8849390663014726 -1.7209358896125198 -0.7871219207180591 3.4235709248827013 0.3842820107351525 -1.0208384995007254 -1.7726855719453232 1.0196086552845538 -0.9006275306557867 -0.34703459792554586 -0.401922838669166 0.5425616961599643 13.455913126888259 -1.3848388386113766 0.6209390040417538 0.7327999086871018 -3.89741638680308 1.1953436619884525 -14.584611520618747 -0.3424449543476668 -10.26797862515927 3.674584546645786 -15.157963532270058 75.08184211174172 -2.7694837704861572 28.492129232879797 40.34058645334513 9.356996978142815 98.03096794655771 16.41433688781912 -0.5184945863177816 -6.815609244513306 4.506840650684581 -0.11506705307486563 -1.6219273924226028 0.018504870825479275 0.005993353825055472 -56.235077963894085 0.03412860340347172 -0.021496080300268464 -56.247162015317954 -38.72164958305875 -0.007944804918356533 -0.03032311353784447 -0.033368282410060714 0.0029528425865744164 0.044670996584919034 0.008715404165347013 0.0255179870704799 0.043159885390977905 -36.722477163784795 -0.009207961540217599 0.034754927487631496 0.04605540259936652 -0.0052264203060973504 0.028493463728992353 -0.01786576462458442 0.02925824836831373 -0.017752221872462816 -19.777144839080194 0.03686340106391758 -0.015103372267799417 0.03963948897304238 -0.019698081640682815 0.04140179459196115 0.019481293141055085 0.005107092691272226 0.020694205569963466 24.09591226047217 0.04777136076408076 -0.01563561247051193 28.865107714795535 -0.03325919833281664 -0.009217554451140864 28.856295125378686 -0.015839516061527722 -0.04973519119100811 9.095109612390903 2.249012449508002 13.10183057345579 -73.11974397129859 24.69750286225016 -18.272058572225912 -49.427484340997836 12.232207460548349 -97.03017423364145 -17.477416081675248 -7.3668250444502865 5.336415401929753 -0.4405520186943024 0.03186500888875369 -8.111478607053337 0.04217028121236716 -0.01017274503757436 44.55377075859865 0.0295246224003374 -0.031475904272029766 44.616328425145284 12.47099490111228 0.03025797354239419 -0.02338519756509553 0.009220238033628425 0.010340273830140375 -0.027334778155044023 0.04738541101150588 -0.005440083427969058 -0.03173007543327488 11.137136688489141 0.03245806288184376 -0.019359323214716943 0.03059466763961597 -0.011150274168851844 0.009647282366475607 0.010624619046778359 -0.02711162010976297 -0.01944896720087201 4.757626672115458 -0.003713410324324283 0.017821153944932527 -0.0007089877502636133 0.01792428048769188 0.005198004524314321 0.008609977496725303 0.019351824564860395 0.04139993036339429 -5.581424827201113 -0.042073321520033034 0.010025793861486436 -6.672591236153756 -0.002288712129685704 0.03355600850749351 -6.730507744094109 0.0024911276118611794 0.04604980379168636 -0.009007411194044945 -0.021932762248936498 0.03436297903098802 8.03408445550952 3.500812031329765 -19.226431164181466 -0.0012143541539904735 10.399029586137996 0.0302643684610496 -5.573477982308447 -15.639555797470173 3.150520013260928 -0.04735837491437321 -0.03366211118093153 0.019749376703139598 0.00950872322639624 4.710903953625984 0.013953676539908614 12.444889103226263 -8.220616006542361 6.85821753976955 0.04054520048843117 46.427167695670406 0.045249542809003694 -4.35917549647441 -14.738938321888911 -3.795990403833719 -0.042331516994523644 -0.04100426771976383 0.007214784431837889 -0.006962573100060448 -10.792398539606973 0.0062694912155625325 
